<svg xmlns="http://www.w3.org/2000/svg" width="116" height="116" viewBox="0 0 116 116">
    <g fill="none" fill-rule="nonzero">
        <path fill="#50D6E3" fill-opacity=".1" d="M58 0c32.034 0 58 25.97 58 58s-25.966 58-58 58S0 90.03 0 58 25.966 0 58 0z"/>
        <circle cx="58" cy="58" r="32.053" stroke="#50D6E3" stroke-width="2"/>
        <path stroke="#50D6E3" stroke-linecap="round" stroke-width="2" d="M80.786 80.527v-2.975a6.605 6.605 0 0 0-3.67-5.938l-7.03-3.514a1.936 1.936 0 0 1-1.075-1.74V63.87c.169-.206.346-.44.53-.7a16.842 16.842 0 0 0 2.173-4.267 2.92 2.92 0 0 0 1.713-2.662v-2.944c0-.708-.265-1.395-.736-1.931v-3.915c.041-.404.203-2.814-1.54-4.801-1.511-1.725-3.964-2.599-7.291-2.599-3.327 0-5.78.874-7.291 2.598-1.743 1.988-1.581 4.398-1.54 4.802v3.914a2.935 2.935 0 0 0-.736 1.932v2.943c0 .896.407 1.731 1.102 2.288.674 2.67 2.085 4.68 2.578 5.326v2.435c0 .712-.389 1.366-1.014 1.707l-6.565 3.581a6.635 6.635 0 0 0-3.46 5.829v9.225M53.996 45.741c-1.013-.353-2.14-.538-3.382-.538-7.646 0-8.09 6.517-8.095 6.624v3.37c-.477.519-.736 1.119-.736 1.714v2.542c0 .794.355 1.534.965 2.035.607 2.288 2.1 4.018 2.681 4.625v2.018c0 .58-.315 1.11-.861 1.41l-4.896 3.07a5.831 5.831 0 0 0-3.04 5.122v2.794"/>
    </g>
</svg>
