<svg xmlns="http://www.w3.org/2000/svg" width="116" height="116" viewBox="0 0 116 116">
    <g fill="none" fill-rule="evenodd">
        <path fill="#50D6E3" fill-opacity=".1" fill-rule="nonzero" d="M58 0c32.034 0 58 25.97 58 58s-25.966 58-58 58S0 90.03 0 58 25.966 0 58 0z"/>
        <circle cx="58" cy="58" r="32.053" stroke="#50D6E3" stroke-width="2"/>
        <g stroke="#50D6E3" stroke-linecap="round" stroke-linejoin="round" stroke-width="2">
            <path d="M48.842 45.79h14.57a5.463 5.463 0 1 1 0 10.925h-14.57V45.789z"/>
            <path d="M48.842 56.715h15.384a7.511 7.511 0 0 1 0 15.022H48.842V56.715z"/>
        </g>
        <g stroke="#50D6E3" stroke-linecap="round" stroke-width="2">
            <path d="M51.895 38.46v6.105M64.105 38.46v6.105M51.895 72.039v6.105M64.105 71.737v6.105"/>
        </g>
    </g>
</svg>
