<svg xmlns="http://www.w3.org/2000/svg" width="116" height="116" viewBox="0 0 116 116">
    <g fill="none" fill-rule="evenodd">
        <path fill="#50D6E3" fill-opacity=".1" fill-rule="nonzero" d="M58 0c32.034 0 58 25.97 58 58s-25.966 58-58 58S0 90.03 0 58 25.966 0 58 0z"/>
        <circle cx="58" cy="58" r="32.053" stroke="#50D6E3" stroke-width="2"/>
        <path stroke="#50D6E3" stroke-linecap="round" stroke-width="2" d="M69.675 50.909A13.728 13.728 0 0 0 58 44.414c-7.587 0-13.737 6.15-13.737 13.737S50.413 71.888 58 71.888a13.72 13.72 0 0 0 11.226-5.817M51.895 38.46v6.105M64.105 38.46v6.105M51.895 72.039v6.105M64.105 71.737v6.105"/>
    </g>
</svg>
