<svg xmlns="http://www.w3.org/2000/svg" width="42" height="43" viewBox="0 0 42 43">
    <g fill="none" fill-rule="evenodd">
        <path stroke="#FFF" d="M33.98 1C30.64 1 28 3.68 28 7.02c0 3.34 2.68 5.98 5.98 5.98C37.277 13 40 10.32 40 6.98 40 3.64 37.32 1 33.98 1z"/>
        <path fill="#858995" fill-rule="nonzero" d="M35.62 7.739c-.04-.122-.04-.203-.117-.324-.04-.081-.078-.203-.156-.284-.078-.08-.117-.162-.194-.243-.078-.08-.156-.162-.273-.202-.078-.081-.195-.122-.272-.162-.117-.04-.195-.122-.312-.162a2.617 2.617 0 0 1-.311-.122.29.29 0 0 1-.156-.08c-.039-.041-.117-.041-.155-.082-.04-.04-.117-.04-.156-.08l-.117-.122c-.039-.04-.078-.081-.078-.162-.039-.04-.039-.122-.039-.162v-.203c0-.04.04-.121.04-.162.038-.04.038-.121.077-.162l.117-.121a.291.291 0 0 1 .194-.081c.078-.04.117-.04.195-.04h.234a.34.34 0 0 1 .194.04c.078 0 .156.04.195.04.039 0 .117.04.155.04.078 0 .117.041.156.041l.195.081.039-.243.078-.648v-.162l-.156-.04c-.04 0-.117-.041-.156-.041-.039 0-.078-.04-.156-.04-.038 0-.116-.041-.194-.041s-.117-.04-.195-.04h-.039V3H33.323v.81h-.039c-.116.04-.233.081-.35.162-.117.04-.195.122-.272.203a1.744 1.744 0 0 0-.234.283c-.078.081-.117.203-.156.324l-.116.365c-.04.121-.04.283-.04.405 0 .121 0 .202.04.324.039.121.039.202.116.324.04.08.117.202.156.283.078.081.117.162.195.243a.7.7 0 0 0 .272.203c.078.08.195.121.273.162.116.04.233.121.311.162.117.04.233.08.311.121a.29.29 0 0 1 .156.081c.039.04.117.04.156.081.039.04.078.081.116.081.04.04.078.081.117.122.04.04.04.08.078.162 0 .04.039.121.039.202v.203c0 .04-.039.121-.078.162l-.117.121c-.039.04-.077.081-.155.122-.04.04-.117.04-.156.08-.039 0-.117.041-.195.041h-.506c-.077 0-.155-.04-.194-.04a.539.539 0 0 1-.234-.081c-.078-.04-.155-.04-.233-.081-.04 0-.078-.04-.117-.04-.039 0-.078-.041-.117-.041l-.233-.122-.04.284L32 9.44v.121l.117.04c.155-.04.233 0 .35.041a.7.7 0 0 0 .272.081c.078.04.195.04.312.081.117.04.194.04.311.04h.078V10.656H34.374v-.851h.04c.116-.04.233-.08.35-.162.116-.04.194-.121.31-.202.079-.081.156-.162.234-.284.078-.08.117-.202.195-.324l.117-.364c.038-.122.038-.243.038-.405 0-.122 0-.203-.038-.324z"/>
        <path stroke="#FFF" stroke-linejoin="round" d="M4.076 42.194V24.638h6.467v17.556M17.18 42.194V25.992h6.466v16.202M31 42.233V17h6.467v25.233"/>
        <path stroke="#FFF" stroke-linecap="round" d="M5.37 20.891l7.174-5.545 6.71 5.545 9.788-9.788M1 42h40"/>
    </g>
</svg>
