<svg xmlns="http://www.w3.org/2000/svg" width="42" height="40" viewBox="0 0 42 40">
    <g fill="none" fill-rule="evenodd" stroke="#FFF">
        <path stroke-linecap="round" d="M14 39h12"/>
        <path stroke-linecap="round" stroke-linejoin="round" d="M39 14.3V31H1V6h26.123"/>
        <path d="M17 31l-1 8M23 31l1 8"/>
        <path stroke-linecap="round" d="M4 28h32M5 24l4.426-4.297 5.297 3.426 4.839-5.33 4.318 2.84L31 13"/>
        <path d="M34.98 1C31.64 1 29 3.68 29 7.02c0 3.34 2.68 5.98 5.98 5.98C38.277 13 41 10.32 41 6.98 41 3.64 38.32 1 34.98 1z"/>
        <path stroke-linecap="round" d="M32 7.049L34.31 9 38 5"/>
    </g>
</svg>
