<svg xmlns="http://www.w3.org/2000/svg" width="44" height="38" viewBox="0 0 44 38">
    <g fill="none" fill-rule="evenodd" stroke="#FFF">
        <path d="M24.2 21.267h-2.567a1.834 1.834 0 0 0 0 3.666h.734a1.834 1.834 0 0 1 0 3.667H19.8M22 21.267V19.8M22 28.6v1.467M12.467 24.933a.734.734 0 1 1-1.468 0 .734.734 0 0 1 1.468 0zM33 24.933a.734.734 0 1 1-1.467 0 .734.734 0 0 1 1.467 0zM36.008 9.533c-.028.245-.075.483-.075.734a6.6 6.6 0 0 0 6.6 6.6c.25 0 .49-.047.733-.074M43.267 30.14c-.244-.027-.483-.073-.734-.073a6.6 6.6 0 0 0-6.6 6.6c0 .25.047.489.075.733M7.992 37.4c.028-.245.075-.483.075-.733a6.6 6.6 0 0 0-6.6-6.6c-.25 0-.49.047-.733.073"/>
        <path d="M.733 14.667V35.2a2.2 2.2 0 0 0 2.2 2.2h38.134a2.2 2.2 0 0 0 2.2-2.2V11.733a2.2 2.2 0 0 0-2.2-2.2H15.685"/>
        <path d="M16.897 14.564c0 4.508-3.616 8.169-8.067 8.169-4.45 0-8.067-3.66-8.067-8.17 0-.153 0-.307.01-.46.134-4.692 2.893-6.037 2.893-6.037s.147 4.4 2.933 4.4c0-1.421.13-4.084.734-5.866C8.11 4.304 9.45 2.446 11.52.947c0 5.447 4.846 6.36 5.33 12.742.017.288.047.567.047.875z"/>
    </g>
</svg>
