<svg xmlns="http://www.w3.org/2000/svg" width="131" height="15" viewBox="0 0 131 15">
    <g fill="#FFF" fill-rule="evenodd">
        <path d="M9.679 11.166H4.224l-1.457 3.603H.837L6.508.788h1.024l5.691 13.981h-2.048L9.68 11.166zM4.815 9.51h4.293L7.513 5.593 6.98 3.486h-.04L6.41 5.632l-1.595 3.88zM25.63 14.77h-9.02V.985h1.97v12.051h7.05v1.733zm3.603-13.647c.552-.118 1.152-.2 1.802-.246a27.22 27.22 0 0 1 1.92-.069c.67 0 1.349.06 2.038.178.69.118 1.316.334 1.88.65a3.897 3.897 0 0 1 1.39 1.309c.36.558.54 1.277.54 2.156 0 .827-.163 1.533-.492 2.117a4.145 4.145 0 0 1-1.31 1.428 5.732 5.732 0 0 1-1.87.807 9.183 9.183 0 0 1-2.54.246l-.512-.02a11.992 11.992 0 0 1-.512-.029 4.735 4.735 0 0 1-.365-.04v5.16h-1.969V1.122zm3.781 1.379c-.354 0-.699.006-1.034.02a3.475 3.475 0 0 0-.778.098v5.297c.066.027.174.043.325.05.151.006.309.016.473.03.164.012.322.019.473.019h.344c.473 0 .939-.036 1.398-.109.46-.072.877-.213 1.25-.423.375-.21.677-.505.907-.886.23-.38.344-.873.344-1.477 0-.525-.111-.958-.334-1.3a2.432 2.432 0 0 0-.867-.807 3.65 3.65 0 0 0-1.191-.404 8.072 8.072 0 0 0-1.31-.108zm18.747 6.105h-6.99v6.163H42.8V.985h1.97v5.888h6.99V.985h1.97v13.784h-1.97V8.606zm14.198 2.56h-5.454l-1.458 3.603h-1.93L62.79.788h1.024l5.691 13.981h-2.048l-1.497-3.603zM61.095 9.51h4.293l-1.595-3.918-.531-2.107h-.04l-.532 2.146-1.595 3.88zm10.516-1.28h5.238v1.694h-5.238V8.23zm18.983-4.056a3.189 3.189 0 0 1-.679 1.96c-.23.295-.522.554-.876.777a3.889 3.889 0 0 1-1.26.492v.08c.42.052.827.157 1.22.314.394.158.742.374 1.044.65.302.276.545.61.729 1.004.183.394.275.86.275 1.398 0 .71-.164 1.323-.492 1.842a4.037 4.037 0 0 1-1.3 1.28 5.998 5.998 0 0 1-1.821.738 8.954 8.954 0 0 1-2.038.236c-.237 0-.525-.003-.867-.01a32.25 32.25 0 0 1-2.195-.118 7.47 7.47 0 0 1-.995-.147V1.103a20.01 20.01 0 0 1 1.89-.217 32.128 32.128 0 0 1 2.324-.079c.565 0 1.146.05 1.743.148a5.486 5.486 0 0 1 1.625.522c.485.25.886.59 1.2 1.024.316.433.473.991.473 1.674zm-7.325 8.98c.092.026.23.045.413.059.184.013.384.026.601.039a21.513 21.513 0 0 0 1.25.04 5.93 5.93 0 0 0 1.29-.139 3.462 3.462 0 0 0 1.093-.433 2.36 2.36 0 0 0 .758-.748c.19-.302.286-.663.286-1.083 0-.525-.115-.942-.345-1.25a2.226 2.226 0 0 0-.896-.71 4.003 4.003 0 0 0-1.24-.315 13.65 13.65 0 0 0-1.359-.069h-1.851v4.608zm1.083-6.145c.25 0 .538-.01.866-.03.329-.019.604-.042.828-.068.328-.092.64-.207.935-.345.295-.137.555-.302.778-.492.223-.19.4-.413.531-.67.132-.255.197-.548.197-.876 0-.446-.088-.804-.265-1.073a1.771 1.771 0 0 0-.7-.62 3.2 3.2 0 0 0-.984-.296 7.927 7.927 0 0 0-1.123-.078c-.46 0-.882.01-1.27.03-.387.019-.68.042-.876.068v4.45h1.083zM96.62 2.284h-1.575v-1.3h5.12v1.3H98.59V13.47h1.575v1.3h-5.12v-1.3h1.575V2.284zm18.019.434h-4.648v12.051h-1.969V2.718h-4.647V.985h11.264v1.733zM115.188 13.932c0-.303.098-.541.295-.714.197-.172.455-.258.775-.258.329 0 .591.086.788.258.197.173.296.41.296.714a.908.908 0 0 1-.296.702c-.197.18-.46.27-.788.27-.32 0-.578-.09-.775-.27a.908.908 0 0 1-.295-.702zm4.726-5.624h1.723v6.461h-1.723V8.308zm-.259-1.391c0-.263.095-.482.283-.659.19-.176.456-.264.8-.264.353 0 .632.09.837.27a.84.84 0 0 1 .308.653c0 .238-.102.443-.308.615-.205.173-.484.259-.837.259-.344 0-.61-.086-.8-.259a.806.806 0 0 1-.283-.615zm4.813 4.628c0-1.067.283-1.904.849-2.511.566-.607 1.374-.91 2.425-.91.55 0 1.03.085 1.44.258.41.172.75.412 1.021.72.27.307.474.668.61 1.083.135.414.202.867.202 1.36 0 .525-.073.999-.221 1.421a2.973 2.973 0 0 1-.64 1.077 2.742 2.742 0 0 1-1.028.677 3.843 3.843 0 0 1-1.384.234c-.558 0-1.043-.086-1.453-.259a2.76 2.76 0 0 1-1.021-.72 2.98 2.98 0 0 1-.603-1.083 4.44 4.44 0 0 1-.197-1.347zm1.772 0c0 .27.029.525.086.763.058.238.146.445.265.621.119.177.273.318.461.425.189.107.419.16.69.16 1 0 1.501-.657 1.501-1.97a3.69 3.69 0 0 0-.08-.793 1.806 1.806 0 0 0-.258-.628 1.228 1.228 0 0 0-.468-.412 1.513 1.513 0 0 0-.695-.148c-.468 0-.835.156-1.102.468-.267.312-.4.816-.4 1.514z"/>
    </g>
</svg>
